<?xml version="1.0" encoding="UTF-8"?>
<svg width="26px" height="40px" viewBox="0 0 26 40" version="1.1" xmlns="http://www.w3.org/2000/svg" xmlns:xlink="http://www.w3.org/1999/xlink">
<title>500a1a26-3b87-43b0-90c2-78b6c1a7ab63</title>
<defs>
    <linearGradient x1="0%" y1="0%" x2="100%" y2="0%" id="linearGradient-1">
        <stop stop-color="#181B80" offset="0%"></stop>
        <stop stop-color="#181ED9" offset="100%"></stop>
    </linearGradient>
</defs>
<g id="Spectra-v1" stroke="none" stroke-width="1" fill="none" fill-rule="evenodd">
    <g id="Main-page" transform="translate(-196.000000, -195.000000)" fill="url(#linearGradient-1)" fill-rule="nonzero">
        <g id="500a1a26-3b87-43b0-90c2-78b6c1a7ab63" transform="translate(196.560386, 195.073000)">
            <path d="M0.973815733,5.11801953 L0.439613568,5.48699953 L0.440000671,29.4266195 L8.56877694,38.9269995 L24.4396136,28.6669995 L24.4396136,0.92699953 L0.973815733,5.11801953 Z M23.486953,27.7622195 L8.85484607,20.7591995 L8.85484607,20.5038395 L23.486953,2.64003953 L23.486953,27.7622195 Z M1.39227409,6.10639953 L1.42633916,6.12425953 L1.42633916,6.02507953 L8.08064004,9.65483953 L8.08064004,20.2382195 L1.42633916,28.3622395 L1.39227409,6.10639953 Z M8.85484607,9.65901953 L22.4193229,2.73123953 L8.85484607,19.2916395 L8.85484607,9.65901953 Z M21.4624043,2.36263953 L8.47509801,8.99743953 L2.20790015,5.67623953 L21.4624043,2.36263953 Z M0.903750087,5.73969953 L0.894846717,5.75603953 L0.823232659,5.71841953 L0.837942573,5.70321953 L0.903750087,5.73969953 L0.903750087,5.73969953 Z M8.08064004,21.4504195 L8.08064004,37.1816595 L1.53821193,29.4342195 L8.08064004,21.4504195 L8.08064004,21.4504195 Z M8.85484607,37.5350595 L8.85484607,21.6058395 L23.0890111,28.4196195 L8.85484607,37.5350595 Z" id="Shape"></path>
        </g>
    </g>
</g>
</svg>
